<svg xmlns="http://www.w3.org/2000/svg" viewBox="0 0 512 512" style="enable-background:new 0 0 512 512" xml:space="preserve"><path d="M174.298 375.829h32.681v43.574h-32.681zM305.021 375.829h32.681v43.574h-32.681zM152.511 217.871c-12.009 0-21.783 9.772-21.787 21.787 0 12.013 9.773 21.787 21.785 21.787h.002c12.013 0 21.787-9.774 21.787-21.787s-9.774-21.787-21.787-21.787zM359.489 217.871c-12.009 0-21.783 9.772-21.787 21.787 0 12.013 9.773 21.787 21.785 21.787h.002c12.013 0 21.787-9.774 21.787-21.787.001-12.013-9.773-21.787-21.787-21.787z"/><path d="M462.979 76.254c-29.141 0-54.221 17.7-65.071 42.91a82.16 82.16 0 0 0-14.795-10.641c-1.303-4.594-6.902-23.963-14.173-43.644-14.567-39.432-25.809-54.078-41.297-53.983-15.541.077-26.585 14.821-40.75 54.401-4.355 12.169-8.075 24.211-10.588 32.746h-40.622c-2.598-8.536-6.509-20.789-11.08-33.162-14.527-39.327-25.698-53.983-41.17-53.983h-.126c-15.541.077-26.585 14.821-40.75 54.401-6.786 18.961-12.035 37.619-13.557 43.161a82.2 82.2 0 0 0-14.911 10.707C103.241 93.956 78.162 76.256 49.02 76.256H0v49.021c0 39.044 31.765 70.809 70.809 70.809h16.34v92.596A70.69 70.69 0 0 0 115 344.99a81.22 81.22 0 0 0-6.063 30.841v43.574c0 45.051 36.652 81.702 81.702 81.702h130.723c45.051 0 81.702-36.652 81.702-81.702v-43.574a81.257 81.257 0 0 0-6.062-30.84 70.691 70.691 0 0 0 27.85-56.308v-92.597h16.34c39.044 0 70.809-31.765 70.809-70.809V76.254h-49.022zm-375.83 87.149h-16.34c-21.024 0-38.128-17.104-38.128-38.128v-16.34h16.34c21.024 0 38.128 17.104 38.128 38.128v16.34zm240.698-111.98c5.249 10.495 11.933 27.786 18.007 46.687-.9-.029-35.462-.069-35.462-.069 5.861-18.862 12.332-36.114 17.455-46.618zm-144.335 0c5.242 10.483 11.915 27.744 17.985 46.618 0 0-34.525.039-35.462.071 5.865-18.89 12.348-36.173 17.477-46.689zm-14.661 79.299h174.298c21.302 0 39.464 13.663 46.211 32.681h-35.317c-39.044 0-70.808 31.765-70.808 70.808v59.915h-54.468v-59.915c0-39.044-31.765-70.808-70.809-70.808H122.64c6.746-19.018 24.909-32.681 46.211-32.681zM119.83 288.679v-92.596h38.128c21.024 0 38.128 17.104 38.128 38.128v59.915h-5.447c-22.344 0-42.615 9.023-57.379 23.609a38.073 38.073 0 0 1-13.43-29.056zm250.553 130.724c0 27.03-21.991 49.021-49.021 49.021H190.638c-27.03 0-49.021-21.991-49.021-49.021v-43.574c0-27.03 21.991-49.021 49.021-49.021h130.723c27.03 0 49.021 21.991 49.021 49.021v43.574zm21.787-130.722a38.07 38.07 0 0 1-13.429 29.055c-14.765-14.586-35.036-23.61-57.38-23.61h-5.447v-59.915c0-21.024 17.104-38.128 38.128-38.128h38.128v92.598zm87.149-163.406c0 21.024-17.104 38.128-38.128 38.128h-16.34v-16.34c0-21.024 17.104-38.128 38.128-38.128h16.34v16.34z"/></svg>